<svg id="Capa_1" enable-background="new 0 0 508.649 508.649" height="512" viewBox="0 0 508.649 508.649" width="512" xmlns="http://www.w3.org/2000/svg"><path d="m437.898 219.753c4.143 0 7.5-3.358 7.5-7.5v-185.417c0-14.797-12.038-26.836-26.836-26.836h-186.121c-14.798 0-26.836 12.039-26.836 26.836v50.724h-22.323c-4.143 0-7.5 3.358-7.5 7.5s3.357 7.5 7.5 7.5h162.953c7.393 0 13.407 6.015 13.407 13.408v374.274c0 7.393-6.015 13.408-13.407 13.408h-133.13c-4.142 0-7.5 3.358-7.5 7.5s3.358 7.5 7.5 7.5h133.13c15.664 0 28.407-12.744 28.407-28.408v-16.242h43.92c14.798 0 26.836-12.039 26.836-26.836v-37.664-157.247c0-4.142-3.357-7.5-7.5-7.5s-7.5 3.358-7.5 7.5v149.747h-55.756v-286.033c0-15.664-12.743-28.408-28.407-28.408h-.418v-33.059c0-4.142-3.357-7.5-7.5-7.5-4.142 0-7.5 3.358-7.5 7.5v33.06h-22.419v-33.06c0-4.142-3.357-7.5-7.5-7.5s-7.5 3.358-7.5 7.5v33.06h-22.419v-33.06c0-4.142-3.357-7.5-7.5-7.5s-7.5 3.358-7.5 7.5v33.06h-35.374v-50.724c0-6.526 5.31-11.836 11.836-11.836h186.121c6.526 0 11.836 5.31 11.836 11.836v185.417c0 4.142 3.357 7.5 7.5 7.5zm-7.5 187.247v30.164c0 6.526-5.31 11.836-11.836 11.836h-43.92v-42z"/><path d="m183.105 493.649h-69.181v-401.089h39.357c4.143 0 7.5-3.358 7.5-7.5s-3.357-7.5-7.5-7.5h-71.177-.677c-10.022 0-18.176 8.154-18.176 18.176v.677 393.384.677c0 10.022 8.153 18.176 18.176 18.176h.677 101.001c4.143 0 7.5-3.358 7.5-7.5s-3.358-7.501-7.5-7.501zm-101.001 0c-2.124 0-3.853-1.728-3.853-3.853v-393.384c0-2.124 1.729-3.853 3.853-3.853h16.82v401.089h-16.82z"/><path d="m231.642 138.338c-50.597 0-91.76 41.163-91.76 91.76s41.163 91.76 91.76 91.76 91.76-41.163 91.76-91.76-41.163-91.76-91.76-91.76zm65.775 131.283c-.255-.086-.516-.162-.784-.222-7.376-1.646-14.829-2.988-22.326-4.063 1.753-8.754 2.844-18.094 3.217-27.737h30.506c-1.132 11.623-4.866 22.493-10.613 32.022zm-65.775 37.237c-8.551 0-17.666-10.712-23.791-28.585 15.818-1.318 31.764-1.318 47.582 0-6.125 17.874-15.24 28.585-23.791 28.585zm-27.765-43.271c-1.63-7.861-2.728-16.581-3.113-25.989h61.755c-.385 9.408-1.483 18.127-3.113 25.989-18.449-1.706-37.079-1.706-55.529 0zm-38.01 6.034c-5.747-9.529-9.48-20.399-10.613-32.022h30.506c.373 9.643 1.464 18.983 3.217 27.737-7.497 1.075-14.95 2.417-22.326 4.063-.269.06-.53.135-.784.222zm0-79.045c.255.086.515.162.784.222 7.376 1.646 14.829 2.988 22.326 4.063-1.753 8.754-2.844 18.094-3.217 27.738h-30.506c1.132-11.624 4.866-22.495 10.613-32.023zm65.775-37.238c8.551 0 17.666 10.712 23.791 28.585-15.818 1.318-31.763 1.318-47.581 0 6.124-17.873 15.239-28.585 23.79-28.585zm0 44.577c9.271 0 18.54-.453 27.765-1.306 1.63 7.861 2.728 16.581 3.113 25.989h-61.755c.385-9.408 1.483-18.128 3.113-25.989 9.224.853 18.493 1.306 27.764 1.306zm45.882 24.683c-.373-9.643-1.464-18.984-3.217-27.738 7.497-1.075 14.95-2.417 22.326-4.063.269-.06.529-.136.784-.222 5.747 9.529 9.481 20.399 10.613 32.023zm9.857-45.192c-5.561 1.113-11.158 2.073-16.785 2.847-1.429-4.549-3.055-8.858-4.884-12.855-1.31-2.865-2.704-5.531-4.172-7.996 9.832 4.174 18.605 10.354 25.841 18.004zm-85.638-18.004c-1.468 2.465-2.861 5.131-4.172 7.996-1.828 3.998-3.455 8.307-4.883 12.855-5.628-.775-11.224-1.734-16.785-2.847 7.236-7.65 16.009-13.83 25.84-18.004zm-25.84 123.389c5.561-1.113 11.158-2.073 16.785-2.847 1.429 4.549 3.055 8.858 4.884 12.855 1.31 2.865 2.704 5.531 4.172 7.996-9.832-4.174-18.606-10.354-25.841-18.004zm85.638 18.003c1.468-2.465 2.861-5.131 4.172-7.996 1.828-3.998 3.455-8.307 4.884-12.855 5.628.775 11.224 1.734 16.785 2.847-7.236 7.651-16.01 13.831-25.841 18.004z"/><path d="m315.902 381.301h-168.52c-4.143 0-7.5 3.358-7.5 7.5s3.357 7.5 7.5 7.5h168.52c4.143 0 7.5-3.358 7.5-7.5s-3.358-7.5-7.5-7.5z"/><path d="m315.902 412.935h-168.52c-4.143 0-7.5 3.358-7.5 7.5s3.357 7.5 7.5 7.5h168.52c4.143 0 7.5-3.358 7.5-7.5s-3.358-7.5-7.5-7.5z"/><path d="m393.398 44.5v264.444c0 4.142 3.357 7.5 7.5 7.5s7.5-3.358 7.5-7.5v-264.444c0-4.142-3.357-7.5-7.5-7.5s-7.5 3.358-7.5 7.5z"/></svg>